Adapted from the novel by C. Virgil Gheorghiu, this satirical concentration-camp drama from Turkish-born French director Henri Verneuil stars Anthony Quinn as Johann Moritz, a Romanian peasant who experiences the horrors of World War II when the Nazis invade his country. Because local police chief Dobresco (Gregoire Aslan) is anamorous towards Moritz's wife Suzanna (Virna Lisi), he has the lowly fieldhand falsely labeled a Jew and sent to a work camp. Moritz's troubles continue to mount, as his wife is threatened with losing their property unless she divorces him. Also starring Michael Redgrave, La Vingt-cinquième heure is also known as The 25th Hour, though it should not be confused with and bears no resemblance to the 2002 Spike Lee film of the same name. 


 
http://www.imdb.com/title/tt0062445/



Director:
Henri Verneuil




        Anthony Quinn	 ... 	Johann Moritz
	Virna Lisi	... 	Suzanna Moritz
	Grégoire Aslan	... 	Dobresco
	Michael Redgrave	... 	Defense lawyer
	Marcel Dalio	... 	Strul (as Dalio)



Video #2
      ID : 2
      Format : VC-1
      Format profile : MP@ML
      Codec ID : WMV3
      Codec ID/Info : Windows Media Video 9
      Codec ID/Hint : WMV3
      Duration : 1h 53mn
      Bit rate mode : Variable
      Bit rate : 1 000 Kbps
      Width : 720 pixels
      Height : 326 pixels
      Display aspect ratio : 2.2
      Frame rate : 25.000 fps
      Resolution : 24 bits
      Scan type : Progressive
      Bits/(Pixel*Frame) : 0.170
      Stream size : 812 MiB (90%)
   Audio #1
      ID : 1
      Format : WMA2
      Format profile : L
      Codec ID : 161
      Codec ID/Info : Windows Media Audio 2
      Description of the codec : Windows Media Audio 9.2 -  96 kbps, 44 kHz, stereo 2-pass VBR
      Duration : 1h 53mn
      Bit rate mode : Variable
      Bit rate : 95.9 Kbps
      Channel(s) : 2 channels
      Sampling rate : 44.1 KHz
      Resolution : 16 bits
      Stream size : 77.9 MiB (9%)


Please seed at least as much as you D/L.
=======================================
Thanks 

John

